<?xml version="1.0" standalone="no"?><!DOCTYPE svg PUBLIC "-//W3C//DTD SVG 1.1//EN" "http://www.w3.org/Graphics/SVG/1.1/DTD/svg11.dtd"><svg t="1696842493811" class="icon" viewBox="0 0 1024 1024" version="1.1" xmlns="http://www.w3.org/2000/svg" p-id="17214" xmlns:xlink="http://www.w3.org/1999/xlink" width="200" height="200"><path d="M694.2208 361.9328c-4.1472-1.9456-3.9424-7.8848 0.3072-9.5744 40.3456-16.2304 68.9152-56.8832 68.9152-104.3968 0-61.8496-48.3328-111.9744-108.032-111.9744-14.2336 0-27.8528 2.8672-40.2944 8.0896-2.56 1.0752-5.4784-0.0512-6.656-2.56-17.2544-36.7616-54.528-62.208-97.8432-62.208-43.3152 0-80.6912 25.4976-97.8944 62.3104-1.1776 2.56-4.096 3.6864-6.7072 2.56-12.544-5.2736-26.2144-8.192-40.6016-8.192-59.648 0-108.032 50.1248-108.032 111.9744 0 47.9232 29.0304 88.7808 69.7856 104.7552 4.2496 1.6896 4.5056 7.5776 0.3584 9.5744-146.5344 70.0928-247.3984 206.5408-247.3984 379.5968v76.6464c0 73.7792 59.8016 133.5808 133.5808 133.5808h593.8688c73.7792 0 133.5808-59.8016 133.5808-133.5808v-82.0736c0-172.0832-100.9664-305.6128-246.9376-374.528z" fill="#8C7BFD" p-id="17215"></path><path d="M633.856 691.5584h-73.2672v-10.496h73.2672c27.5968 0 49.92-22.3744 49.92-49.92s-22.3744-49.92-49.92-49.92h-3.84l37.6832-37.6832a49.90464 49.90464 0 0 0 0-70.6048 49.90464 49.90464 0 0 0-70.6048 0l-84.9408 84.9408-84.9408-84.992a49.90464 49.90464 0 0 0-70.6048 0 49.90464 49.90464 0 0 0 0 70.6048l37.6832 37.6832h-6.8096c-27.5968 0-49.92 22.3744-49.92 49.92s22.3744 49.92 49.92 49.92h73.2672v10.496H387.4304c-27.5968 0-49.92 22.3744-49.92 49.92s22.3744 49.92 49.92 49.92h73.2672v35.5328c0 27.5968 22.3744 49.92 49.92 49.92s49.92-22.3744 49.92-49.92v-35.5328h73.2672c27.5968 0 49.92-22.3744 49.92-49.92s-22.272-49.8688-49.8688-49.8688z" fill="#FFE37B" p-id="17216"></path></svg>