<?xml version="1.0" standalone="no"?><!DOCTYPE svg PUBLIC "-//W3C//DTD SVG 1.1//EN" "http://www.w3.org/Graphics/SVG/1.1/DTD/svg11.dtd"><svg t="1696842646942" class="icon" viewBox="0 0 1024 1024" version="1.1" xmlns="http://www.w3.org/2000/svg" p-id="25673" xmlns:xlink="http://www.w3.org/1999/xlink" width="200" height="200"><path d="M944 688H80c-17.674 0-32-14.326-32-32v-32h896v64z" fill="#5C546A" p-id="25674"></path><path d="M336 288H96c-8.844 0-16 7.164-16 16v192c0 8.844 7.156 16 16 16h240c8.844 0 16-7.156 16-16v-192c0-8.836-7.156-16-16-16z" fill="#8A8895" p-id="25675"></path><path d="M528 240H288c-8.844 0-16 7.164-16 16v192c0 8.844 7.156 16 16 16h240c8.844 0 16-7.156 16-16v-192c0-8.836-7.156-16-16-16z" fill="#FFD100" p-id="25676"></path><path d="M779.796 629.188l-176-192A15.98 15.98 0 0 0 592 432H32c-17.64 0-32 14.36-32 32v128c0 35.296 28.704 64 64 64h704a15.98 15.98 0 0 0 14.64-9.562 15.986 15.986 0 0 0-2.844-17.25z" fill="#E7001E" p-id="25677"></path><path d="M971.454 432l-129.05-25.094-42.886-119.39C786.688 258.648 758 240 726.406 240H624c-26.468 0-48 21.532-48 48v272c0 52.938 43.062 96 96 96h304c26.468 0 48-21.532 48-48v-128c0-30.938-22.094-42.454-52.546-48z" fill="#FF4F19" p-id="25678"></path><path d="M1024 528h-56c-13.254 0-24-10.746-24-24s10.746-24 24-24h56" fill="#FFD100" p-id="25679"></path><path d="M192 288h32v144H192zM128 288h32v144H128z" fill="#5C546A" p-id="25680"></path><path d="M0 576c26.51 0 48-21.49 48-48v-48a16 16 0 0 0-16-16H0v112z" fill="#FF4F19" p-id="25681"></path><path d="M224.002 672m-112 0a112 112 0 1 0 224 0 112 112 0 1 0-224 0Z" fill="#5C546A" p-id="25682"></path><path d="M224.002 672m-64 0a64 64 0 1 0 128 0 64 64 0 1 0-128 0Z" fill="#8A8895" p-id="25683"></path><path d="M864 672m-112 0a112 112 0 1 0 224 0 112 112 0 1 0-224 0Z" fill="#5C546A" p-id="25684"></path><path d="M864 672m-64 0a64 64 0 1 0 128 0 64 64 0 1 0-128 0Z" fill="#8A8895" p-id="25685"></path><path d="M799.516 287.516c-2.5-5.626-5.758-10.728-9.368-15.516H624v102.906c0 17.672 14.328 32 32 32h186.402l-42.886-119.39z" fill="#5C546A" p-id="25686"></path><path d="M992 480h32v48h-32z" fill="#FFFFFF" p-id="25687"></path><path d="M272 288h272v32H272z" fill="#FF9500" p-id="25688"></path><path d="M272 368h272v32H272z" fill="#FF9500" p-id="25689"></path></svg>