<?xml version="1.0" standalone="no"?><!DOCTYPE svg PUBLIC "-//W3C//DTD SVG 1.1//EN" "http://www.w3.org/Graphics/SVG/1.1/DTD/svg11.dtd"><svg class="icon" width="200px" height="200.00px" viewBox="0 0 1024 1024" version="1.1" xmlns="http://www.w3.org/2000/svg"><path fill="#ffffff" d="M800 896c17.673 0 32 14.327 32 32 0 17.673-14.327 32-32 32H224c-17.673 0-32-14.327-32-32 0-17.673 14.327-32 32-32h576z m64-832c53.02 0 96 42.98 96 96v576c0 53.02-42.98 96-96 96H160c-53.02 0-96-42.98-96-96V160c0-53.02 42.98-96 96-96h704z m-54.435 300.753c-10.375-13.79-29.842-16.862-43.96-6.937l-0.426 0.304-149.996 109.087a16 16 0 0 1-17.476 0.879l-0.32-0.192-161.716-99.517c-22.507-13.85-51.183-12.43-72.2 3.5l-0.634 0.488-126.483 98.376-0.415 0.328c-13.448 10.814-15.892 30.37-5.517 44.161l0.319 0.416 0.328 0.415c10.814 13.448 30.37 15.892 44.161 5.517l0.416-0.319 117.723-91.563a16 16 0 0 1 17.892-1.187l0.317 0.19 161.395 99.32c21.871 13.459 49.644 12.53 70.553-2.294l0.632-0.454L802.82 409.88l0.426-0.315c13.79-10.375 16.862-29.842 6.937-43.96l-0.304-0.426-0.315-0.426z"  /></svg>