<?xml version="1.0" standalone="no"?><!DOCTYPE svg PUBLIC "-//W3C//DTD SVG 1.1//EN" "http://www.w3.org/Graphics/SVG/1.1/DTD/svg11.dtd"><svg class="icon" width="200px" height="200.00px" viewBox="0 0 1024 1024" version="1.1" xmlns="http://www.w3.org/2000/svg"><path fill="#ffffff" d="M938.666667 533.333333a440.906667 440.906667 0 0 1-35.46 173.773334 453.766667 453.766667 0 0 1-238.766667 238.766666 443.52 443.52 0 0 1-347.546667 0 453.766667 453.766667 0 0 1-238.766666-238.766666 443.52 443.52 0 0 1 0-347.546667 453.766667 453.766667 0 0 1 238.766666-238.766667A440.906667 440.906667 0 0 1 490.666667 85.333333a21.333333 21.333333 0 0 1 21.333333 21.333334v405.333333h405.333333a21.333333 21.333333 0 0 1 21.333334 21.333333z m11.8-240.446666A405.373333 405.373333 0 0 0 576 42.666667a21.333333 21.333333 0 0 0-21.333333 21.333333v384a21.333333 21.333333 0 0 0 21.333333 21.333333h384a21.333333 21.333333 0 0 0 21.333333-21.333333 403.333333 403.333333 0 0 0-30.866666-155.113333z"  /></svg>