<?xml version="1.0" standalone="no"?><!DOCTYPE svg PUBLIC "-//W3C//DTD SVG 1.1//EN" "http://www.w3.org/Graphics/SVG/1.1/DTD/svg11.dtd"><svg t="1694080604074" class="icon" viewBox="0 0 1024 1024" version="1.1" xmlns="http://www.w3.org/2000/svg" p-id="22859" xmlns:xlink="http://www.w3.org/1999/xlink" width="200" height="200"><path d="M832 565.333333l-166.4-36.266666c53.333333-27.733333 89.6-81.066667 89.6-145.066667v-72.533333c0-89.6-72.533333-162.133333-162.133333-162.133334-89.6 0-164.266667 72.533333-164.266667 162.133334V384c0 64 36.266667 117.333333 89.6 145.066667l-166.4 36.266666c-51.2 10.666667-85.333333 55.466667-85.333333 106.666667v130.133333c0 40.533333 32 72.533333 72.533333 72.533334h507.733333c40.533333 0 72.533333-32 72.533334-72.533334v-130.133333c-2.133333-51.2-38.4-96-87.466667-106.666667z" p-id="22860"></path><path d="M337.066667 503.466667l53.333333-10.666667c-17.066667-32-27.733333-68.266667-27.733333-106.666667v-72.533333c0-19.2 2.133333-38.4 8.533333-57.6-19.2-12.8-44.8-21.333333-70.4-21.333333-70.4 0-130.133333 57.6-130.133333 130.133333v57.6c0 49.066667 27.733333 93.866667 70.4 115.2l-132.266667 27.733333c-40.533333 8.533333-68.266667 42.666667-68.266667 85.333334v102.4C42.666667 785.066667 68.266667 810.666667 100.266667 810.666667h100.266666v-138.666667c0-81.066667 57.6-151.466667 136.533334-168.533333zM842.666667 256h106.666666c17.066667 0 32-14.933333 32-32S966.4 192 949.333333 192h-106.666666c-17.066667 0-32 14.933333-32 32s14.933333 32 32 32zM949.333333 320h-106.666666c-17.066667 0-32 14.933333-32 32s14.933333 32 32 32h106.666666c17.066667 0 32-14.933333 32-32s-14.933333-32-32-32zM949.333333 448h-106.666666c-17.066667 0-32 14.933333-32 32s14.933333 32 32 32h106.666666c17.066667 0 32-14.933333 32-32s-14.933333-32-32-32z" p-id="22861"></path></svg>